<svg width="38" height="38" viewBox="0 0 38 38" fill="none" xmlns="http://www.w3.org/2000/svg">
<path fill-rule="evenodd" clip-rule="evenodd" d="M19 38C29.4934 38 38 29.4934 38 19C38 8.50659 29.4934 0 19 0C8.50659 0 0 8.50659 0 19C0 29.4934 8.50659 38 19 38Z" fill="#24AFB5"/>
<path opacity="0.4" fill-rule="evenodd" clip-rule="evenodd" d="M13.1034 18.3448H24.8965C27.0676 18.3448 28.8275 20.1048 28.8275 22.2759V26.2069C28.8275 28.378 27.0676 30.138 24.8965 30.138H13.1034C10.9323 30.138 9.17236 28.378 9.17236 26.2069V22.2759C9.17236 20.1048 10.9323 18.3448 13.1034 18.3448Z" fill="white"/>
<path opacity="0.6" fill-rule="evenodd" clip-rule="evenodd" d="M13.1034 13.1034H24.8965C27.0676 13.1034 28.8275 14.8634 28.8275 17.0344V20.9655C28.8275 23.1365 27.0676 24.8965 24.8965 24.8965H13.1034C10.9323 24.8965 9.17236 23.1365 9.17236 20.9655V17.0344C9.17236 14.8634 10.9323 13.1034 13.1034 13.1034Z" fill="white"/>
<path opacity="0.8" fill-rule="evenodd" clip-rule="evenodd" d="M13.1034 7.86206H24.8965C27.0676 7.86206 28.8275 9.62204 28.8275 11.7931V15.7241C28.8275 17.8952 27.0676 19.6552 24.8965 19.6552H13.1034C10.9323 19.6552 9.17236 17.8952 9.17236 15.7241V11.7931C9.17236 9.62204 10.9323 7.86206 13.1034 7.86206Z" fill="white"/>
</svg>
